<svg xmlns="http://www.w3.org/2000/svg" viewBox="0 0 64 64" fill="none">
  <defs>
    <linearGradient id="brandGrad" x1="0" y1="0" x2="64" y2="64" gradientUnits="userSpaceOnUse">
      <stop offset="0%" stop-color="#10B981" />
      <stop offset="100%" stop-color="#0D9488" />
    </linearGradient>
    <linearGradient id="accentGrad" x1="16" y1="16" x2="48" y2="48" gradientUnits="userSpaceOnUse">
      <stop offset="0%" stop-color="#34D399" />
      <stop offset="100%" stop-color="#059669" />
    </linearGradient>
  </defs>
  <rect width="64" height="64" rx="16" fill="url(#brandGrad)" />
  <path d="M16 22C16 19.7909 17.7909 18 20 18H44C46.2091 18 48 19.7909 48 22V42C48 44.2091 46.2091 46 44 46H20C17.7909 46 16 44.2091 16 42V22Z" fill="white" fill-opacity="0.2" />
  <path d="M14 26C14 23.7909 15.7909 22 18 22H46C48.2091 22 50 23.7909 50 26V44C50 46.2091 48.2091 48 46 48H18C15.7909 48 14 46.2091 14 44V26Z" fill="url(#accentGrad)" />
  <circle cx="41" cy="35" r="4.5" fill="#FEF08A" />
  <path d="M22 30H32M22 36H28" stroke="white" stroke-width="2.5" stroke-linecap="round" />
</svg>
